<?xml version="1.0" encoding="UTF-8" standalone="no"?>
<svg
   width="753.25"
   height="517"
   viewBox="-702 0 753.25 517"
   version="1.2"
   id="svg35"
   sodipodi:docname="AKA PETU.svg"
   inkscape:version="1.4.2 (f4327f4, 2025-05-13)"
   xmlns:inkscape="http://www.inkscape.org/namespaces/inkscape"
   xmlns:sodipodi="http://sodipodi.sourceforge.net/DTD/sodipodi-0.dtd"
   xmlns="http://www.w3.org/2000/svg"
   xmlns:svg="http://www.w3.org/2000/svg"
   xmlns:rdf="http://www.w3.org/1999/02/22-rdf-syntax-ns#"
   xmlns:cc="http://creativecommons.org/ns#"
   xmlns:dc="http://purl.org/dc/elements/1.1/"><defs
   id="defs35" />
<sodipodi:namedview
   id="namedview35"
   pagecolor="#ffffff"
   bordercolor="#000000"
   borderopacity="0.25"
   inkscape:showpageshadow="2"
   inkscape:pageopacity="0.0"
   inkscape:pagecheckerboard="0"
   inkscape:deskcolor="#d1d1d1"
   inkscape:zoom="0.88788789"
   inkscape:cx="453.323"
   inkscape:cy="15.767756"
   inkscape:window-width="3840"
   inkscape:window-height="2036"
   inkscape:window-x="-12"
   inkscape:window-y="-12"
   inkscape:window-maximized="1"
   inkscape:current-layer="svg35" />
<title
   id="title1">Website portfolio</title>
\n<g
   id="g1"
   transform="translate(-248.5,-1434)">
  <path
     fill="#000000"
     fill-rule="evenodd"
     d="m 282,1492 h -1 v -1 h 1 v 1"
     id="path1" />
</g>
<g
   id="g2"
   transform="translate(-248.5,-1434)">
  <path
     fill="#000000"
     fill-rule="evenodd"
     d="m 283,1490 -0.75,-0.25 0.75,-1.75 v 2"
     id="path2" />
</g>
<g
   id="g3"
   transform="translate(-248.5,-1434)">
  <path
     fill="#000000"
     fill-rule="evenodd"
     d="m 283,1488 v -2.5 l 0.5,-0.5 h 0.5 v 3 h -1"
     id="path3" />
</g>
<g
   id="g4"
   transform="translate(-248.5,-1434)">
  <path
     fill="#000000"
     fill-rule="evenodd"
     d="m -59,1524 h -1 v -1 h 1 v 1"
     id="path4" />
</g>
<g
   id="g5"
   transform="translate(-248.5,-1434)">
  <path
     fill="#000000"
     fill-rule="evenodd"
     d="m -59,1519 h -1 v -1 h 1 v 1"
     id="path5" />
</g>
<g
   id="g6"
   transform="translate(-248.5,-1434)">
  <path
     fill="#000000"
     fill-rule="evenodd"
     d="m -59,1515 h -1 v -1 h 1 v 1"
     id="path6" />
</g>
<g
   id="g7"
   transform="translate(-248.5,-1434)">
  <path
     fill="#000000"
     fill-rule="evenodd"
     d="m -42,1487 v -0.5 l 0.5,-0.5 0.5,1 h -1"
     id="path7" />
</g>
<g
   id="g8"
   transform="translate(-248.5,-1434)">
  <path
     fill="#000000"
     fill-rule="evenodd"
     d="m -152,1534 v -1 h 0.5 l 0.5,0.5 v 0.5 h -1"
     id="path8" />
</g>
<g
   id="g9"
   transform="translate(-248.5,-1434)">
  <path
     fill="#000000"
     fill-rule="evenodd"
     d="m 189,1458 h -0.5 l -0.5,-0.5 1,-0.5 v 1"
     id="path9" />
</g>
<g
   id="g10"
   transform="translate(-248.5,-1434)">
  <path
     fill="#000000"
     fill-rule="evenodd"
     d="m 189,1454 h -1 v -1 h 1 v 1"
     id="path10" />
</g>
<g
   id="g11"
   transform="translate(-248.5,-1434)">
  <path
     fill="#000000"
     fill-rule="evenodd"
     d="m 37,1467 -0.5,1 -0.5,-1 h 1"
     id="path11" />
</g>
<g
   id="g17"
   transform="translate(-248.5,-1434)" />
<g
   id="g18"
   transform="translate(-248.5,-1434)" />
<g
   id="g19"
   transform="rotate(-8.3742034,-10234.117,2718.3188)">
  <path
     fill="#000000"
     fill-rule="evenodd"
     d="m -252.5,1762 h -1 l -2.5,-2.5 v -4 l 1.5,-1.5 h 1 l 2.5,2.5 v 4 l -1.5,1.5"
     id="path19" />
</g>
<g
   id="g20"
   transform="rotate(-8.3742034,-10234.117,2718.3188)">
  <path
     fill="#000000"
     fill-rule="evenodd"
     d="m -337.5,1789 h -2 l -2.5,-2.5 -0.375,-1.5 v -3 l 0.375,-1.5 1.5,-1.5 h 2 l 1.5,1.5 v 1 l 1,1 -1,1 1,1 v 1 l 1,1 -2.5,2.5"
     id="path20" />
</g>
<g
   id="g21"
   transform="rotate(-8.3742034,-10234.117,2718.3188)">
  <path
     fill="#000000"
     fill-rule="evenodd"
     d="m -346.5,1797 -4.25,-0.12 -0.25,-1.38 -2,-2 -0.5,-4.5 -4,-14 -6.125,-15 -10.875,-18 -3,-4 -1.5,-2.5 -7.5,-7.5 h -1 l -2,-2 -2.5,0.63 -2,0.87 -3,2 -16.75,13.75 -0.5,1.5 -1.5,0.5 -0.5,1.5 -1.5,0.5 -9.25,12.25 -9,13 -5.5,9.5 -2.875,7 -0.875,3 -0.25,13 2,14 4.75,15.75 1.25,0.25 0.5,0.5 -1,1 1,1 v 5 l -1.5,1.5 h -1 l -2.5,-2.5 v -1 l -2,-2 -0.625,-2.5 -3.875,-10 -1.875,-7 -3,-15 -0.125,-6 1.5,-11.5 -1,-1 1,-1 -1,-1 2.5,-20.5 8.125,-25 2.75,-5 0.625,-2.5 2,-2 1.5,-2.5 7,-10 7.75,-9.75 1.5,-0.5 0.5,-1.5 4.75,-1.87 1.75,-0.13 1.25,3.25 1,1 -1,1 v 1 l -1.5,1.5 h -1.5 l 0.5,1 3.5,-0.5 h 3 l 8,2 5,2 4.5,2.5 1,1 1,-1 2.5,-0.62 5,-1.88 3.5,-0.5 1.5,1.5 0.375,1.5 0.375,3.75 -1.25,0.25 -1,-1 -2,2 -2.25,0.25 -0.25,2.25 1.5,1.5 1.25,0.25 7.75,9.75 15.875,29 7.125,19 1.5,6.5 2,2 -1,1 v 2 l -1.5,1.5 m -98.5,-21 v -0.5 l 0.5,-1.5 5,-8 12.5,-16.5 2,-3 12.5,-12.5 14,-11 2,-1 0.5,-0.5 -1.5,-1.5 -1.5,-0.37 -3,-1.13 -4,-1 h -4 l -2.5,0.5 -2,2 -3.25,-1.25 -0.25,-1.25 -1.5,-1.5 -6.5,6.5 -1.5,2.5 -4.5,6.5 -3.5,6.5 -0.5,1.5 -2,2 -0.5,2.5 -3,8 -2,7 -2.125,10 -1,3 0.125,2.5 1.5,1.5"
     id="path21" />
</g>
<g
   id="g22"
   transform="translate(-248.5,-1434)">
  <path
     fill="#000000"
     fill-rule="evenodd"
     d="m 202,1616 v -0.5 l 0.5,-0.5 0.5,1 h -1"
     id="path22" />
</g>
<g
   id="g23"
   transform="matrix(1.0697538,0,0,1.0229851,-235.38969,-1494.6117)">
  <path
     fill="#000000"
     fill-rule="evenodd"
     d="m -13,1714 v -1 h -1 v 1 h 1 m 39,-13 v -1 h -1 v 1 h 1 m -3.5,1 0.5,-1 h -1.5 l -0.5,1 h 1.5 m -3,1 0.5,-1 h -1.5 l -0.5,1 h 1.5 m -3,1 0.5,-1 h -1.5 l -0.5,1 h 1.5 m -2,1 0.5,-1 h -3.5 l -0.5,1 h 3.5 m -4,1 0.5,-1 H 8.5 l -0.5,1 h 2.5 m -3,1 0.5,-1 H 5.5 l -0.5,1 h 2.5 m -3,1 0.5,-1 H 2.5 l -0.5,1 h 2.5 m -3,1 0.5,-1 H 0.5 l -0.5,1 h 1.5 m -3,1 0.5,-1 h -1.5 l -0.5,1 h 1.5 m -3,1 0.5,-1 h -1.5 l -0.5,1 h 1.5 m -2.5,1 v -1 h -1 v 1 h 1 m -3,1 v -1 h -1 v 1 h 1 m 126.5,-34 0.5,-1 h -1.5 l -0.5,1 h 1.5 m -4,1 0.5,-1 h -1.5 l -0.5,1 h 1.5 m -4,1 0.5,-1 h -1.5 l -0.5,1 h 1.5 m -5,1 0.5,-1 h -1.5 l -0.5,1 h 1.5 m -4,1 0.5,-1 h -1.5 l -0.5,1 h 1.5 m -4,1 0.5,-1 h -1.5 l -0.5,1 h 1.5 m -4.5,1 v -1 h -1 v 1 h 1 m -4,1 v -1 h -1 v 1 h 1 m -256,94 v -1 h -1 v 1 h 1 m -241,161 v -1 h -1 v 1 h 1 m -2,2 1,-0.5 -1,-0.5 0.5,-2 1,-2 24.5,-29.5 12.5,-12.5 16.5,-14.5 12.5,-9.5 9.5,-6.5 20.5,-14.5 118.5,-64.37 5,-2.13 10,-4.87 5.5,-1.63 2,-2 1,1 1,-1 4.5,-2.37 70,-29.13 107,-43 119,-31 88,-12.87 28.75,-0.63 0.5,1.75 1.25,0.25 0.5,0.5 -1.5,1.5 -81.5,9.5 -93,20 -73,22 -68,27 -104,44 -50,24 -73.5,39.5 -28.5,18.5 -11.5,8.5 -8,5 -9.5,7.5 -17.5,15.5 -4,3 -2.5,2.5 v 1 l -9.5,9.5 -1.25,0.25 -1.75,2.75 -9,11 -1.5,2.5 -1.5,1.5 h -1 l -3.5,3.5 -2,4 -2,2 1,1 v 2 l 1,1 -1.5,1.5 -3.5,-3.5 1,-1 -0.5,-1.5 0.5,-2 0.5,1 0.5,-1"
     id="path23" />
</g>
<g
   id="g24"
   transform="translate(-248.5,-1434)">
  <path
     fill="#000000"
     fill-rule="evenodd"
     d="m 117,1639 h -1 v -1 h 1 v 1"
     id="path24" />
</g>
<g
   id="g25"
   transform="translate(-248.5,-1434)">
  <path
     fill="#000000"
     fill-rule="evenodd"
     d="m 50,1622 h -0.5 l -0.5,-0.5 1,-0.5 v 1"
     id="path25" />
</g>
<g
   id="g26"
   transform="translate(-248.5,-1434)">
  <path
     fill="#000000"
     fill-rule="evenodd"
     d="m 50,1621 v -0.5 l 0.5,-0.5 H 51 v 1 h -1"
     id="path26" />
</g>
<g
   id="g27"
   transform="translate(-248.5,-1434)">
  <path
     fill="#000000"
     fill-rule="evenodd"
     d="m -15,1666 h -1 v -1 h 1 v 1"
     id="path27" />
</g>
<g
   id="g28"
   transform="rotate(-8.3742034,-10208.225,2681.5475)">
  <path
     fill="#000000"
     fill-rule="evenodd"
     d="m -241.25,1742.88 -4.25,0.12 -1.5,-1.5 -0.5,-1.5 -0.875,-2 -4.625,-16.5 -1.5,-1.5 -1.25,-0.25 -0.625,-2.75 -0.125,-5 0.75,-4 2.375,-24 0.875,-4 5.125,-15 1.875,-4 11.875,-18 0.875,-2.75 7.25,-5.25 2.5,-1.37 3,-1.13 3.75,-0.25 -0.25,1.75 -1,2 -0.5,1.5 -2,2 0.5,0.5 2.5,0.5 5,2 5.5,3.5 2,1 7.5,7.5 6,8 5.375,10.5 4.125,12 3,19 -0.25,9 -0.25,1.5 -1.5,1.5 -1,-1 -1.25,-0.25 -1.5,-3.75 -4.375,-27 -2.875,-8 -0.5,-2.5 -2,-2 -0.5,-1.5 -2.5,-4.5 -3,-4 -2,-3 -3.5,-3.5 -5,5 -1.5,0.5 -8,6 -2.5,1.5 -8.5,8.5 -2,3 -3,4 -8.5,13.5 -3.875,8 -0.25,4 2.25,16 1.875,7 0.5,3.5 2,2 0.375,1.5 0.375,3.88 m -6.25,-52.88 1.5,-1.5 0.5,-1.5 3.5,-5.5 11,-14 3.5,-3.5 3,-2 8,-6 2.5,-1.25 4.5,-0.75 1.5,-1.5 -3.5,-3.5 h -1 l -3,-3 -2.5,-0.62 -5,-1.88 -2.5,-0.5 -2.5,2.5 -1.5,2.5 -7.5,10.5 -4.375,7.5 -3.125,9 -3,10 -0.5,4.5 0.5,0.5"
     id="path28" />
</g>
<g
   id="g29"
   transform="rotate(-8.3742034,-10234.117,2718.3188)">
  <path
     fill="#000000"
     fill-rule="evenodd"
     d="m -261.125,1764.75 -3.625,-1 -0.25,-1.25 -4,-4 -0.625,-3.5 -6,-17 -4.875,-10 -1.5,-2.5 -2.5,-3.5 -1.5,-2.5 -1.5,-1.5 h -1 l -1.5,-1.5 v -1 l -2.5,-2.5 -2.5,-1.5 -3.5,-2.5 -6.5,-3.37 -4,-1 -13,-2.13 h -6 l -8.5,1.5 -1,-1 -1.5,1.5 0.75,9.5 11.625,22 6,19 1.125,6 0.5,5.5 -1.5,1.5 -1.5,0.5 -1.75,0.25 -0.5,-1.5 -1.625,-0.5 -1.625,-10.75 -4.125,-15 -3.875,-10 -1,-2 -4,-6 -0.875,-2 -0.625,-2.5 -2,-2 v -1 l -1.5,-1.5 -2,2 h -2 l -3.5,-3.5 1,-1 -1,-6 -3.5,-3.5 -1.25,-0.25 -0.25,-1.25 -2.5,-2.5 -2.5,-1.5 -10.5,-7.5 -9.5,-5.5 -1.75,-0.75 v -1.62 l 4.75,0.62 7,2.88 6,3.87 1.5,0.5 2,2 h 2 l 2,2 5.5,4.5 6,4 1.5,-0.5 2.5,-2.5 v -10 l 1,-1 -1,-1 1,-1 0.5,-3.5 1.875,-7 2.25,-6 2.875,-5 4.5,-6.5 8.5,-8.5 h 1 l 2,-2 3.5,-0.5 3,-1 2.5,-0.5 0.5,0.5 -3,3 v 1 l -1.5,1.5 -1.5,0.5 -5.5,3.5 -1.5,1.5 -2,3 -7.5,9.5 -3,8 -3,13 -0.375,6.88 5.875,-0.38 5,-1.25 h 2 l 21,3.38 3,1 6,2.87 5.5,3.5 11.5,11.5 1,2 3.5,5.5 11.875,29 1,4 0.5,6.75"
     id="path29" />
</g>
<g
   id="g30"
   transform="rotate(-8.3742034,-10234.117,2718.3188)" />
<g
   id="g31"
   transform="translate(-248.5,-1434)">
  <path
     fill="#000000"
     fill-rule="evenodd"
     d="m -29,1588 h -0.5 l -0.5,-0.5 1,-0.5 v 1"
     id="path31" />
</g>
<g
   id="g32"
   transform="translate(-248.5,-1434)">
  <path
     fill="#000000"
     fill-rule="evenodd"
     d="m -17,1575 h -1 v -1 h 1 v 1"
     id="path32" />
</g>
<g
   id="g33"
   transform="translate(-248.5,-1434)">
  <path
     fill="#000000"
     fill-rule="evenodd"
     d="m -102.5,1728 h -4 l -2.5,-2.5 -0.5,-3.5 v -5 l 0.5,-3.5 2,-2 1.625,-8.5 1,-3 0.875,-2 0.5,-1.5 -1,-1 1,-1 1,-10 1,-1 -1,-1 1,-1 v -7 l -1,-1 1,-1 -4.625,-28.5 -1.375,-4.5 1,-1 -1,-1 -0.625,-4.5 -2,-7 -9,-24 -14.875,-27 -0.75,-1.75 -1.5,-0.5 -0.25,-2.25 -3,-3 -0.5,-1.5 -4.5,-7.5 -10.5,-14.5 -1.5,-2.5 -4.5,-4.5 -0.5,0.5 v 6 l -1,1 2,2 1.25,3.25 5.25,1.25 0.5,0.5 -1,1 1,1 -0.5,0.5 -6,-1 -1,-1 -1,1 -6,-1 -2.5,-2.5 -1.375,-4.5 -0.125,-6 0.875,-4 0.75,-7.75 1.625,-0.5 0.5,-2.5 1.25,-0.25 1.5,-1.5 1,-2 2,-3 3,-4 2,-3 1.5,-1.5 3.5,-2.5 5.5,-4.5 3.5,-2.5 1.75,-0.75 0.5,-1.5 1.75,-0.75 6,-3 1.5,-0.5 2,-2 2.5,-0.62 4,-1.75 12,-4 11,-2.13 4,0.13 1.5,0.37 1,-1 1,1 h 1 l 1,-1 1,1 h 2 l 1,1 1,-1 1,1 4.25,0.13 0.25,1.37 0.5,0.5 1,-1 4.5,2.5 1.75,0.75 0.25,1.25 -1,1 0.5,0.5 h 1 l 1,1 1,-1 1.5,1.5 5.5,7.5 0.5,1.5 -1,1 2,2 v 2 l 1,1 -0.5,0.5 H -62 l 0.5,1 1.25,0.25 0.25,1.25 -1,1 1,1 -1,6 1,1 -1,1 1,1 -0.5,1.5 -0.25,2 0.125,6 -5.75,19 -3.125,8 -6.875,16 -0.625,2.5 -2,2 -0.375,1.5 -1.25,3 -0.375,1.5 -2,2 v 2 l -2,2 -0.5,1.5 -0.875,2 -0.625,2.5 -2,2 -0.5,1.5 -5.5,10.5 -2,2 1,1 -3,3 v 1 l -0.5,0.5 -1,-1 -1,1 h -1 l -0.5,0.5 1,1 1.5,6.5 7,27 2,15 0.5,11.5 1,1 -1,1 1,1 -0.375,1.5 0.125,5 -3.25,20 -3.125,11 -0.875,2 -0.5,1.5 -4.5,4.5 m -48.5,-194 2,1.5 1.25,4.25 1.5,0.5 1.25,3.25 1.5,1.5 1.25,0.25 0.25,2.25 2,2 0.25,1.25 1.5,0.5 0.25,1.25 3,3 1.25,4.25 1.5,0.5 1.5,4.5 1.5,0.5 0.25,2.25 2,2 0.25,2.25 1.5,0.5 0.25,1.25 2,2 -1,1 0.5,0.5 1.25,0.25 0.25,2.25 3,3 0.625,2.5 0.875,2 0.5,1.5 2,2 v 2 l 3,3 0.625,2.5 0.75,2 0.625,2.5 2,2 0.25,1.25 h 1.5 l 15.25,-26.25 2,-2 v -2 l 2,-2 -1,-1 2,-2 0.625,-2.5 1.75,-4 0.625,-2.5 2,-2 0.5,-2.5 4,-10 2.875,-11 2.375,-15 v -2 l -2.375,-11 -1.375,-2.5 -2,-3 -1.25,-2.25 -5.75,-3.75 -2,-0.87 -2.5,-0.63 -1,-1 -1,1 -1,-1 h -10 l -1,1 -1,-1 -1,1 -3.5,0.5 -15,5.13 -1.5,0.37 -2,2 -2.5,0.63 -4,1.87 -1.75,0.75 -0.5,1.5 -1.75,0.75 -8.5,6.5 -2,1 -2.5,2.5 -1.5,2.5 -2.5,3.5 -1,2 -1,1 1,1 -1,1 0.5,0.5 h 1 l 2.5,2.5 v 0.5 l -1,0.5 0.5,0.5 h 0.5 l 0.5,1 0.5,-1 m 74,-47 v -1 h -1 v 1 h 1 m -38,10 v -1 h -1 v 1 h 1 m 48,-1 v -1 h -1 v 1 h 1"
     id="path33" />
</g>
<g
   id="g34"
   transform="translate(-248.5,-1434)">
  <path
     fill="#000000"
     fill-rule="evenodd"
     d="m 191,1446 v -1 h -1 v 1 h 1 m -1,2 v -1 h -1 v 1 h 1 m -71,57 v -1 h -1 v 1 h 1 m 168,-23 v -1.5 l -1,-0.5 v 1 l 1,1 m -1,2 v -1 h -1 v 1 h 1 m -16,53 v -1 h -1 v 1 h 1 m -29,54 v -1 h -1 v 1 h 1 m 25,-45 v -1 h -1 v 1 h 1 m -1,2 v -1 h -1 v 1 h 1 m -2,5 v -1 h -1 v 1 h 1 m -1,2 v -1 h -1 v 1 h 1 m -2,4 v -1 h -1 v 1 h 1 m -3,6 v -1 h -1 v 1 h 1 m -1,2 v -1 h -1 v 1 h 1 m -53,49 3,-0.62 2,-0.75 2.5,-0.63 2,-2 2,-1 3,-2 2,-1 7.5,-7.5 6.5,-8.5 2,-3 0.75,-1.75 1.5,-0.5 0.25,-2.25 2,-2 1.5,-2.5 2.5,-3.5 1.375,-2.5 0.625,-2.5 2,-2 1.25,-3.25 1.5,-0.5 0.25,-3.25 2,-2 0.25,-1.25 1.25,-0.25 0.5,-0.5 -1,-1 0.5,-1.5 1,-2 0.5,-1.5 2,-2 0.625,-2.5 6.75,-15 0.625,-2.5 3,-3 -1,-1 2,-2 0.625,-2.5 1.875,-4 0.5,-1.5 1,-1 -1,-1 2,-2 0.375,-1.5 7.125,-18 0.5,-3 h 0.5 l 0.5,-0.5 v -1.5 l 1,-2.5 -1,-0.5 0.5,-3 5.5,-15.5 0.5,-0.5 1,1 0.5,-0.5 2,-4 2.5,-2.5 2.375,0.25 0.875,6.75 v 2 l -0.75,4.5 -2,2 -1.625,6.5 -1.875,5 -0.5,2.5 -2,2 v 2 l -1.5,1.5 h -1 l -0.5,0.5 1,1 -2,4 -1,1 1,1 -0.25,1.25 -1.25,0.25 -0.5,0.5 1,1 v 1 l -2,2 -0.625,2.5 -2.875,7 -1,2 -0.5,1.5 -2,2 1,1 -1,1 -0.625,2.5 -7.75,18 -0.625,2.5 -2,2 -0.625,2.5 -9.875,20 -0.5,1.5 -2,2 v 2 l -2,2 -0.5,1.5 -9.5,16.5 -2,2 1,1 -1.5,1.5 -1.25,0.25 -0.25,2.25 -5,5 v 1 l -7.5,7.5 h -1 l -1.5,1.5 v 1 l -1.5,1.5 -1.5,0.5 -7,4 -2,0.88 -3,0.87 -12.5,-0.25 -8.5,-8.5 -0.5,-1.5 -1,-2 -0.75,-2 -0.75,-5.5 -1,-1 1,-1 -1,-1 -1,-9 1,-1 -1,-1 1,-25 -1,-1 1,-1 v -2 l 1,-1 -1,-1 v -1 l 1,-1 -1,-1 1,-1 v -9 l 1,-1 -1,-1 1,-1 1,-13 1,-1 -1,-1 1,-3 -1,-1 1,-1 v -14 l 1,-1 -0.5,-0.5 H 185 l 0.5,-1 h 1.5 l -0.5,-1 H 185 l 0.5,-1 h 1.5 l -0.5,-1 H 185 l 0.5,-1 h 1 l 0.5,-0.5 -1,-1 1,-1 v -3 l -1,-1 1,-1 -0.25,-1.5 2.25,-41 1,-0.5 -1,-0.5 v -0.5 l -1,-1 0.5,-0.5 1.25,-0.25 -0.25,-1.75 -0.5,-1.5 -1,-1 1,-1 -0.25,-1.25 -2.25,-0.25 -1,-1 -1,1 h -1 l -1,-1 -1,1 -6.5,-1.62 -2,-0.13 -11.5,1.75 -1,-1 -0.5,0.5 -0.25,1.25 -1.25,0.25 -1,-1 -1,1 h -1 l -1,1 -1,-1 -4.25,1.25 -0.25,1.25 -0.5,0.5 -1,-1 -3.25,1.25 -0.25,1.25 -0.5,0.5 -1,-1 -1.5,0.38 -9.75,3.87 -0.25,1.25 -0.5,0.5 -1,-1 -5.25,1.25 -0.5,1.5 -1.25,0.25 -0.5,0.5 1,1 1,6 1,1 -1,1 1,1 v 4 l 1,1 -1,1 1,1 -1,1 1,3 1,1 -1,1 3,33 -1,1 1,1 1,17 -1,1 1,1 v 1 l -1,1 1,1 -1,1 0.75,6.5 -0.625,4 0.875,19.5 -1,1 1,1 -6.625,46.5 -3.875,10 -4,7 -0.75,1.75 -1.25,0.25 -2,2 -5.25,-0.12 -1.5,-3.88 -1.5,-5 0.75,-2.5 3.5,-5.5 0.5,-1.5 3,-3 0.625,-2.5 0.75,-2 4,-16 3.625,-22.5 -1,-1 1,-1 v -4 l 1,-1 -1,-1 v -1 l 1,-1 -1,-1 1,-1 0.875,-13.5 -0.25,-2 v -3 l 0.375,-1.5 -1,-1 1,-1 -1,-1 -1,-17 -1,-1 1,-1 -1,-1 1,-1 -1,-1 1,-8 v -0.5 l -1,0.5 v 1.5 l -1,-0.5 0.5,-2.5 -0.125,-4 -0.625,-2 -4.75,-38.5 -1.5,-1.5 -11.5,2.63 -5,1.75 -30.5,4.62 -1,1 -1,-1 -1,1 -1,-1 h -2 l -1,1 -1,-1 h -5 l -3.5,-3.5 v -1 l -1,-1 2,-2 0.25,-2.25 2.25,-0.25 1,-1 1,1 1,-1 26,-3 1,1 1,-1 h 2 l 1,-1 1,1 18.5,-4.5 3,-1 2.5,-0.5 2,-2 h 1 l 1,-1 1,1 2.5,-0.5 10,-3 11,-4.12 1.5,-0.38 1,-1 1,1 2,-2 1.5,-0.25 8,-2.25 15,-4.25 2,-0.75 h 2 l 1.5,0.5 1,-1 1,1 1,-1 2,2 1,-1 1.25,0.25 0.5,1.5 2.25,0.25 3.5,3.5 1.25,3.25 2.25,0.25 2,-2 h 3 l 1,1 1,-1 1.25,0.25 0.5,1.5 1.25,0.25 2.5,2.5 -1,1 2,2 -1,1 1,1 -1,1 v 1 l -2,2 -7,61 -1,1 1,1 v 1 l -1,1 1,1 v 1 l -1,1 1,1 -1.5,7.5 -0.5,4.5 1,1 -1,1 1,1 -1,1 -1,28 -1,1 1,1 -1,10 1,1 -1,1 1,1 -1,1 1.75,12.5 1.25,4.5 -1,1 1,1 -1,1 1,1 -1,1 0.5,0.5 1.25,0.25 0.75,1.75 2.5,4.5 2.5,2.5 h 1.5 l 0.5,1 0.5,-1"
     id="path34" />
</g>
<g
   id="g35"
   transform="translate(-248.5,-1434)">
  <path
     fill="#000000"
     fill-rule="evenodd"
     d="m 25,1472 v -1 h -1 v 1 h 1 m -3,1 v -1 h -1 v 1 h 1 m -2,1 v -1 h -1 v 1 h 1 m -9,4 v -1 h -1 v 1 h 1 m -4,2 v -1 H 6 v 1 h 1 m -5,3 v -1 H 1 v 1 h 1 m -2,1 v -1 h -1 v 1 h 1 m -29,135 v -1 h -1 v 1 h 1 m -2,7 v -1 h -1 v 1 h 1 m 82,-5 1,-0.5 -1,-0.5 0.25,-0.75 1.5,-0.5 13.5,-15.5 3.75,-1.5 6.5,-0.75 3.5,3.5 -0.5,1.5 -0.125,5 -2.625,4.75 -8.5,6.5 -0.25,1.25 -3.5,3.5 -6,4 -2.5,2.5 v 1 l -2.5,2.5 -2.25,0.25 -0.25,1.25 -2.5,2.5 -25.5,22.5 -8,6 -3,2 -1.75,0.75 -0.25,1.25 -1.5,1.5 h -1 l -1,1 -1,-1 -3,3 -1.5,0.38 -3,1.12 -8,2 h -6 l -4,-1.12 -2,-0.88 -1.5,-0.5 -4.5,-4.5 -0.5,-1.5 -0.875,-2 -1,-3 -2.625,-19.5 -1,-1 1,-1 -1,-1 v -7 l -1,-1 1,-1 -1,-1 v -4 l -1,-1 1,-1 -1,-1 1,-1 -0.375,-1.5 -0.625,-3.5 -1,-1 1,-1 -0.5,-3.5 -1.5,-6.5 1,-1 -1,-1 1,-1 -1,-1 v -4 l -1,-1 1,-1 -1,-1 1,-1 -2,-2 1,-1 -1,-13 -1,-1 1,-1 -1,-1 -1,-18 -2,-2 1,-1 v -8.25 l -1.5,-0.25 -0.5,-0.5 1,-1 -1,-1 V 1522 l -1,0.5 -8.25,10.25 -1.25,0.25 -1.5,-1.5 1.625,-6.5 0.875,-2 3,-5 0.5,-1.5 1,-1 -1,-1 2,-2 3,-5 2,-2 v -10 l 1,-1 -1,-1 1,-1 -1,-1 1,-1 -1,-1 1,-1 1,-1.5 v 1.5 l 0.5,0.5 0.5,-0.5 v -1.5 l 4,-0.62 4,0.12 1.75,-0.25 2.25,4.25 0.5,0.5 2,-2 6.5,-4.5 19,-12 7,-3.87 5,-2.13 28,-11 8.5,0.5 1.5,1.5 v 1 l -4.5,4.5 -3.25,1.25 -0.25,1.25 -0.5,0.5 -1,-1 -2.5,2 -0.5,-1 -0.5,0.5 v 0.5 h -0.5 l -2,2 -1.5,0.5 -21,9 -13.5,7.5 -11.5,7.5 -8.5,6.5 -2,1 -9.5,9.5 v 4 l -1,1 1,1 -1,1 v 24 l 1,1 -1,1 1,1 v 12 l 1,1 -1,1 1,1 2,29.25 2,-0.75 1,-0.5 -1,-0.5 v -0.5 l 10.5,-10.5 h 1 l 2.5,-2.5 v -1 l 1.5,-1.5 h 1 l 1.5,-1.5 v -1 l 0.5,-0.5 1,1 0.5,-0.5 0.25,-1.25 1.5,-0.5 0.25,-1.25 0.5,-0.5 1,1 0.5,-0.5 0.25,-1.25 1.25,-0.25 1.5,-1.5 v -1 l 2.5,-2.5 1,1 0.5,-0.5 v -1 l 2.5,-2.5 2.25,-0.25 0.25,-1.25 1.5,-1.5 h 1 l 1.5,-1.5 v -1 l 1.5,-1.5 h 1 l 1.5,-1.5 0.25,-1.25 1.5,-0.5 0.5,-1.5 5.75,-1.62 4.5,-0.63 1,-1 1.5,1.5 -0.375,1.5 -2,5 -0.625,2.5 -13.5,13.5 -2.5,1.5 -28.75,22.75 -0.5,1.5 -1.75,0.75 -2.5,1.5 -3.5,2.5 -2.875,1.75 0.875,14.25 1,1 -1,1 1,1 3.5,30.5 2.125,10 4.625,11.75 1.75,-0.12 2.5,-0.63 h 0.5 l -0.5,1 H -14 l 0.5,1 3.5,-0.5 7,-2.12 14.5,-8.38 7.5,-5.5 2.5,-1.5 2.5,-2.5 v -1 l 2.5,-2.5 7,-5 7.5,-7.5 0.25,-1.25 1.5,-0.5 0.5,-1.5 4.25,-2.25 0.5,-0.5 -1,-1 0.5,-0.5 h 1 l 1.5,-2 h 0.5 l 0.5,-0.5 v -0.5 m 28,-12 v -1 h -1 v 1 h 1 m -14,16 v -1 h -1 v 1 h 1 m -5,5 v -1 h -1 v 1 h 1"
     id="path35" />
</g>
<metadata
   id="metadata35">
  <rdf:RDF>
    <cc:Work
       rdf:about="">
      <dc:title>Website portfolio</dc:title>
    </cc:Work>
  </rdf:RDF>
</metadata>
</svg>
